[Header]
FileType HTR
DataType HTRS
FileVersion 1
NumSegments 64
NumFrames 4
DataFrameRate 24
EulerRotationOrder ZYX
CalibrationUnits mm
RotationUnits Degrees
GlobalAxisofGravity Y
BoneLengthAxis Y
ScaleFactor 1.0
[SegmentNames&Hierarchy]
Hips	GLOBAL
Spine	Hips
Spine1	Spine
Spine2	Spine1
Neck	Spine2
Head	Neck
LeftEye	Head
RightEye	Head
LeftShoulder	Spine2
LeftArm	LeftShoulder
LeftForeArm	LeftArm
LeftHand	LeftForeArm
LeftHandThumb1	LeftHand
LeftHandThumb2	LeftHandThumb1
LeftHandThumb3	LeftHandThumb2
LeftHandThumb4	LeftHandThumb3
LeftHandIndex1	LeftHand
LeftHandIndex2	LeftHandIndex1
LeftHandIndex3	LeftHandIndex2
LeftHandIndex4	LeftHandIndex3
LeftHandMiddle1	LeftHand
LeftHandMiddle2	LeftHandMiddle1
LeftHandMiddle3	LeftHandMiddle2
LeftHandMiddle4	LeftHandMiddle3
LeftHandRing1	LeftHand
LeftHandRing2	LeftHandRing1
LeftHandRing3	LeftHandRing2
LeftHandRing4	LeftHandRing3
LeftHandPinky1	LeftHand
LeftHandPinky2	LeftHandPinky1
LeftHandPinky3	LeftHandPinky2
LeftHandPinky4	LeftHandPinky3
RightShoulder	Spine2
RightArm	RightShoulder
RightForeArm	RightArm
RightHand	RightForeArm
RightHandPinky1	RightHand
RightHandPinky2	RightHandPinky1
RightHandPinky3	RightHandPinky2
RightHandPinky4	RightHandPinky3
RightHandRing1	RightHand
RightHandRing2	RightHandRing1
RightHandRing3	RightHandRing2
RightHandRing4	RightHandRing3
RightHandMiddle1	RightHand
RightHandMiddle2	RightHandMiddle1
RightHandMiddle3	RightHandMiddle2
RightHandMiddle4	RightHandMiddle3
RightHandIndex1	RightHand
RightHandIndex2	RightHandIndex1
RightHandIndex3	RightHandIndex2
RightHandIndex4	RightHandIndex3
RightHandThumb1	RightHand
RightHandThumb2	RightHandThumb1
RightHandThumb3	RightHandThumb2
RightHandThumb4	RightHandThumb3
LeftUpLeg	Hips
LeftLeg	LeftUpLeg
LeftFoot	LeftLeg
LeftToeBase	LeftFoot
RightUpLeg	Hips
RightLeg	RightUpLeg
RightFoot	RightLeg
RightToeBase	RightFoot
[BasePosition]
Hips	0	0	0	0	0	0	1
Spine	0	0	0	0	0	0	1
Spine1	0	0	0	0	0	0	1
Spine2	0	0	0	0	0	0	1
Neck	0	0	0	0	0	0	1
Head	0	0	0	0	0	0	1
LeftEye	0	0	0	0	0	0	1
RightEye	0	0	0	0	0	0	1
LeftShoulder	0	0	0	0	0	0	1
LeftArm	0	0	0	0	0	0	1
LeftForeArm	0	0	0	0	0	0	1
LeftHand	0	0	0	0	0	0	1
LeftHandThumb1	0	0	0	0	0	0	1
LeftHandThumb2	0	0	0	0	0	0	1
LeftHandThumb3	0	0	0	0	0	0	1
LeftHandThumb4	0	0	0	0	0	0	1
LeftHandIndex1	0	0	0	0	0	0	1
LeftHandIndex2	0	0	0	0	0	0	1
LeftHandIndex3	0	0	0	0	0	0	1
LeftHandIndex4	0	0	0	0	0	0	1
LeftHandMiddle1	0	0	0	0	0	0	1
LeftHandMiddle2	0	0	0	0	0	0	1
LeftHandMiddle3	0	0	0	0	0	0	1
LeftHandMiddle4	0	0	0	0	0	0	1
LeftHandRing1	0	0	0	0	0	0	1
LeftHandRing2	0	0	0	0	0	0	1
LeftHandRing3	0	0	0	0	0	0	1
LeftHandRing4	0	0	0	0	0	0	1
LeftHandPinky1	0	0	0	0	0	0	1
LeftHandPinky2	0	0	0	0	0	0	1
LeftHandPinky3	0	0	0	0	0	0	1
LeftHandPinky4	0	0	0	0	0	0	1
RightShoulder	0	0	0	0	0	0	1
RightArm	0	0	0	0	0	0	1
RightForeArm	0	0	0	0	0	0	1
RightHand	0	0	0	0	0	0	1
RightHandPinky1	0	0	0	0	0	0	1
RightHandPinky2	0	0	0	0	0	0	1
RightHandPinky3	0	0	0	0	0	0	1
RightHandPinky4	0	0	0	0	0	0	1
RightHandRing1	0	0	0	0	0	0	1
RightHandRing2	0	0	0	0	0	0	1
RightHandRing3	0	0	0	0	0	0	1
RightHandRing4	0	0	0	0	0	0	1
RightHandMiddle1	0	0	0	0	0	0	1
RightHandMiddle2	0	0	0	0	0	0	1
RightHandMiddle3	0	0	0	0	0	0	1
RightHandMiddle4	0	0	0	0	0	0	1
RightHandIndex1	0	0	0	0	0	0	1
RightHandIndex2	0	0	0	0	0	0	1
RightHandIndex3	0	0	0	0	0	0	1
RightHandIndex4	0	0	0	0	0	0	1
RightHandThumb1	0	0	0	0	0	0	1
RightHandThumb2	0	0	0	0	0	0	1
RightHandThumb3	0	0	0	0	0	0	1
RightHandThumb4	0	0	0	0	0	0	1
LeftUpLeg	0	0	0	0	0	0	1
LeftLeg	0	0	0	0	0	0	1
LeftFoot	0	0	0	0	0	0	1
LeftToeBase	0	0	0	0	0	0	1
RightUpLeg	0	0	0	0	0	0	1
RightLeg	0	0	0	0	0	0	1
RightFoot	0	0	0	0	0	0	1
RightToeBase	0	0	0	0	0	0	1
[Hips]
103	-28.0357666	912.0712891	16.70342255	-2.520411968	-1.654779315	-0.7942960858	1.0
104	-22.15648651	913.550415	19.12142754	-1.986868382	-1.646295309	-1.020801783	1.0
105	-15.91909981	907.4973145	19.86676025	-1.715176344	-1.745989084	-1.307459116	1.0
106	-10.90615845	897.0932007	18.67423058	-2.329403162	-1.863265634	-1.471482754	1.0
[Spine]
103	9.234152094e-05	101.8158798	1.31520927	1.321041822	1.019764543	7.834894657	1.0
104	9.234152094e-05	101.8158798	1.31520927	-0.2067762464	1.723297477	7.058008194	1.0
105	9.234152094e-05	101.8158798	1.31520927	-0.523198843	2.296235085	6.231588364	1.0
106	9.234152094e-05	101.8158798	1.31520927	1.02070725	2.388141632	5.635861874	1.0
[Spine1]
103	2.519402869e-06	100.8345108	-10.00804329	-3.729170561	-0.005529396236	3.363882542	1.0
104	2.519402869e-06	100.8345108	-10.00804329	-4.128725052	0.2045605481	3.328771591	1.0
105	2.519402869e-06	100.8345108	-10.00804329	-4.362872124	0.3880598247	3.269568205	1.0
106	2.519402869e-06	100.8345108	-10.00804329	-4.355606556	0.4725058377	3.159656048	1.0
[Spine2]
103	3.4574864e-06	91.00010681	-13.73417091	-3.748797417	-0.569067359	0.8550809622	1.0
104	3.4574864e-06	91.00010681	-13.73417091	-4.156508446	-0.3995340765	0.7384448647	1.0
105	3.4574864e-06	91.00010681	-13.73417091	-4.398078918	-0.2462673634	0.6005316377	1.0
106	3.4574864e-06	91.00010681	-13.73417091	-4.394459248	-0.1842226088	0.4131453931	1.0
[Neck]
103	6.334285445e-06	166.7166901	-25.16167831	9.240049362	-0.08831407875	-1.120552063	1.0
104	6.334285445e-06	166.7166901	-25.16167831	9.662944794	-0.1640938222	-1.018452764	1.0
105	6.334285445e-06	166.7166901	-25.16167831	9.751613617	-0.2185860574	-1.042275071	1.0
106	6.334285445e-06	166.7166901	-25.16167831	9.567782402	-0.2447359413	-1.031226397	1.0
[Head]
103	-4.242318937e-06	96.17874908	16.85007477	6.935112953	-2.822220564	-7.387497902	1.0
104	-4.242318937e-06	96.17874908	16.85007477	9.79856205	-3.383531332	-6.775623322	1.0
105	-4.242318937e-06	96.17874908	16.85007477	10.95671177	-3.673907995	-6.454659462	1.0
106	-4.242318937e-06	96.17874908	16.85007477	11.04314327	-3.408345461	-6.081202984	1.0
[LeftEye]
103	30.67560577	64.09507751	92.83554077	0	0	0	1.0
104	30.67560577	64.09507751	92.83554077	0	0	0	1.0
105	30.67560577	64.09507751	92.83554077	0	0	0	1.0
106	30.67560577	64.09507751	92.83554077	0	0	0	1.0
[RightEye]
103	-30.67550468	64.09500122	92.83547211	0	0	0	1.0
104	-30.67550468	64.09500122	92.83547211	0	0	0	1.0
105	-30.67550468	64.09500122	92.83547211	0	0	0	1.0
106	-30.67550468	64.09500122	92.83547211	0	0	0	1.0
[LeftShoulder]
103	45.70446396	109.4598465	-26.27988052	3.4158113	-12.54428387	-6.463234425	1.0
104	45.70446396	109.4598465	-26.27988052	4.650576115	-12.9456749	-0.003746509552	1.0
105	45.70446396	109.4598465	-26.27988052	6.672055244	-13.67569733	7.099603653	1.0
106	45.70446396	109.4598465	-26.27988052	8.006979942	-14.50435925	11.64577007	1.0
[LeftArm]
103	105.9236984	-5.245829105	-22.32120132	-5.615409374	-8.702402115	0.6902278662	1.0
104	105.9236984	-5.245829105	-22.32120132	-17.28548622	-9.506664276	8.549686432	1.0
105	105.9236984	-5.245829105	-22.32120132	-30.08293152	-9.384643555	14.25216389	1.0
106	105.9236984	-5.245829105	-22.32120132	-42.06955719	-7.189612865	19.18557549	1.0
[LeftForeArm]
103	278.4151917	-0.0008942864952	0.0003745891154	-7.813060284	-72.88085938	31.95358658	1.0
104	278.4151917	-0.0008942864952	0.0003745891154	6.059366703	-59.42324448	14.31316471	1.0
105	278.4151917	-0.0008942864952	0.0003745891154	5.646337032	-44.6894722	8.647186279	1.0
106	278.4151917	-0.0008942864952	0.0003745891154	0.6502869725	-31.50479317	4.638172626	1.0
[LeftHand]
103	283.2883911	-0.0001744071778	0.0003780452244	-72.29748535	3.548596859	6.576711178	1.0
104	283.2883911	-0.0001744071778	0.0003780452244	-72.36149597	3.87772131	7.209756851	1.0
105	283.2883911	-0.0001744071778	0.0003780452244	-72.4008255	4.041912079	7.967028141	1.0
106	283.2883911	-0.0001744071778	0.0003780452244	-72.40585327	3.585470676	8.857905388	1.0
[LeftHandThumb1]
103	24.66140366	-15.7504921	26.82413483	-12.40877342	-1.50151217	-4.134064198	1.0
104	24.66140366	-15.7504921	26.82413483	-8.528876305	-1.378488421	-0.1399821043	1.0
105	24.66140366	-15.7504921	26.82413483	-3.996365786	-1.288786173	4.360773087	1.0
106	24.66140366	-15.7504921	26.82413483	0.3112244904	-1.508368492	8.211681366	1.0
[LeftHandThumb2]
103	32.29803848	-18.6469059	18.64681244	25.24399757	29.74193001	25.32777596	1.0
104	32.29803848	-18.6469059	18.64681244	23.71413612	28.55223656	23.04699516	1.0
105	32.29803848	-18.6469059	18.64681244	22.15196037	27.13438225	20.56079102	1.0
106	32.29803848	-18.6469059	18.64681244	20.82530785	25.76053619	18.39373589	1.0
[LeftHandThumb3]
103	26.52565002	-15.31492996	15.31471634	-5.919172764	19.70576668	8.965351105	1.0
104	26.52565002	-15.31492996	15.31471634	-2.675895214	18.48462677	12.32252789	1.0
105	26.52565002	-15.31492996	15.31471634	1.145950437	17.15441513	16.1940937	1.0
106	26.52565002	-15.31492996	15.31471634	4.579116821	15.703722	19.42594147	1.0
[LeftHandThumb4]
103	19.54566956	-11.2850008	11.28492165	0	0	0	1.0
104	19.54566956	-11.2850008	11.28492165	0	0	0	1.0
105	19.54566956	-11.2850008	11.28492165	0	0	0	1.0
106	19.54566956	-11.2850008	11.28492165	0	0	0	1.0
[LeftHandIndex1]
103	91.09301758	-5.170834064	22.6007309	-5.01478672	7.073497772	-59.57945633	1.0
104	91.09301758	-5.170834064	22.6007309	-3.881425142	7.321650982	-47.37385178	1.0
105	91.09301758	-5.170834064	22.6007309	-2.638886213	7.516637325	-33.56022263	1.0
106	91.09301758	-5.170834064	22.6007309	-1.73103559	7.331169128	-21.10278511	1.0
[LeftHandIndex2]
103	36.76409531	-6.939138257e-05	0.0002924251603	-1.345804334	3.987763643	-43.41603851	1.0
104	36.76409531	-6.939138257e-05	0.0002924251603	-0.4976560175	3.449276447	-36.00022125	1.0
105	36.76409531	-6.939138257e-05	0.0002924251603	0.422541827	2.796429396	-27.52406502	1.0
106	36.76409531	-6.939138257e-05	0.0002924251603	1.132231593	2.147335529	-19.92797279	1.0
[LeftHandIndex3]
103	28.83062553	0.000385119667	-0.0004276481632	-0.2761830091	3.935099602	-37.12691879	1.0
104	28.83062553	0.000385119667	-0.0004276481632	0.04521337897	3.326418161	-30.94380188	1.0
105	28.83062553	0.000385119667	-0.0004276481632	0.3758201599	2.607567787	-23.87688637	1.0
106	28.83062553	0.000385119667	-0.0004276481632	0.5890498161	1.9234308	-17.54349899	1.0
[LeftHandIndex4]
103	23.92720032	0.0003702590766	0.0003355443478	0	0	0	1.0
104	23.92720032	0.0003702590766	0.0003355443478	0	0	0	1.0
105	23.92720032	0.0003702590766	0.0003355443478	0	0	0	1.0
106	23.92720032	0.0003702590766	0.0003355443478	0	0	0	1.0
[LeftHandMiddle1]
103	95.33401489	-0.000339240476	0.0001393702551	-7.085142136	7.774206161	-58.94133759	1.0
104	95.33401489	-0.000339240476	0.0001393702551	-5.054680824	7.038675308	-47.08250046	1.0
105	95.33401489	-0.000339240476	0.0001393702551	-2.788208246	6.040122032	-33.65067291	1.0
106	95.33401489	-0.000339240476	0.0001393702551	-0.9511095285	4.841815948	-21.60179329	1.0
[LeftHandMiddle2]
103	36.98236847	1.961359158e-05	0.0001791696704	-2.499344826	5.852122307	-62.29663467	1.0
104	36.98236847	1.961359158e-05	0.0001791696704	-1.896679044	4.890903473	-49.41091537	1.0
105	36.98236847	1.961359158e-05	0.0001791696704	-1.323696852	3.649291277	-34.69494247	1.0
106	36.98236847	1.961359158e-05	0.0001791696704	-1.126580238	2.293396473	-21.53592873	1.0
[LeftHandMiddle3]
103	29.50921631	-0.0003937608562	0.0001644795993	-1.395334005	3.827796698	-41.2385025	1.0
104	29.50921631	-0.0003937608562	0.0001644795993	-0.9406421185	3.253746033	-34.05239868	1.0
105	29.50921631	-0.0003937608562	0.0001644795993	-0.4686164856	2.563894033	-25.83893013	1.0
106	29.50921631	-0.0003937608562	0.0001644795993	-0.1557879001	1.8879807	-18.47808456	1.0
[LeftHandMiddle4]
103	28.3390255	-0.0003893481917	-9.504223272e-05	0	0	0	1.0
104	28.3390255	-0.0003893481917	-9.504223272e-05	0	0	0	1.0
105	28.3390255	-0.0003893481917	-9.504223272e-05	0	0	0	1.0
106	28.3390255	-0.0003893481917	-9.504223272e-05	0	0	0	1.0
[LeftHandRing1]
103	91.04527283	-0.4393950403	-18.65084648	-11.71199703	8.862791061	-65.18164825	1.0
104	91.04527283	-0.4393950403	-18.65084648	-9.234518051	8.044563293	-51.75509262	1.0
105	91.04527283	-0.4393950403	-18.65084648	-6.451231956	6.851285934	-36.46746063	1.0
106	91.04527283	-0.4393950403	-18.65084648	-4.187338829	5.403943539	-22.80900383	1.0
[LeftHandRing2]
103	31.54026794	-6.55346812e-05	0.000104257444	-3.410949707	6.69808054	-73.58712769	1.0
104	31.54026794	-6.55346812e-05	0.000104257444	-3.599370956	5.597310543	-60.59156036	1.0
105	31.54026794	-6.55346812e-05	0.000104257444	-3.903032303	4.173233986	-45.75659561	1.0
106	31.54026794	-6.55346812e-05	0.000104257444	-4.444180965	2.59002924	-32.50895691	1.0
[LeftHandRing3]
103	29.37672424	-0.0004545861739	-6.864757597e-05	0.1529486328	4.331304073	-37.5120697	1.0
104	29.37672424	-0.0004545861739	-6.864757597e-05	-0.556933105	3.572955132	-31.63002205	1.0
105	29.37672424	-0.0004545861739	-6.864757597e-05	-1.401983976	2.684274435	-24.90842628	1.0
106	29.37672424	-0.0004545861739	-6.864757597e-05	-2.234864473	1.848412991	-18.88670921	1.0
[LeftHandRing4]
103	26.47452545	-0.0004980441299	7.070515267e-07	0	0	0	1.0
104	26.47452545	-0.0004980441299	7.070515267e-07	0	0	0	1.0
105	26.47452545	-0.0004980441299	7.070515267e-07	0	0	0	1.0
106	26.47452545	-0.0004980441299	7.070515267e-07	0	0	0	1.0
[LeftHandPinky1]
103	80.77777863	-4.886682034	-38.06066895	-18.36355782	9.056080818	-72.24979401	1.0
104	80.77777863	-4.886682034	-38.06066895	-15.53928757	8.324046135	-57.31466293	1.0
105	80.77777863	-4.886682034	-38.06066895	-12.31779099	7.105422497	-40.18624115	1.0
106	80.77777863	-4.886682034	-38.06066895	-9.6939888	5.552038193	-24.94429207	1.0
[LeftHandPinky2]
103	36.00034332	-2.252215199e-05	-0.0002623879409	0.2902605832	7.99994421	-62.7685051	1.0
104	36.00034332	-2.252215199e-05	-0.0002623879409	0.4822353721	6.459461212	-50.76599503	1.0
105	36.00034332	-2.252215199e-05	-0.0002623879409	0.6023674011	4.57143259	-37.07390213	1.0
106	36.00034332	-2.252215199e-05	-0.0002623879409	0.4452026486	2.656918287	-24.85688972	1.0
[LeftHandPinky3]
103	21.14211655	0.0001953828178	-2.864415183e-05	-2.606552839	4.106630325	-41.41621399	1.0
104	21.14211655	0.0001953828178	-2.864415183e-05	-3.177980661	3.646193027	-35.57057953	1.0
105	21.14211655	0.0001953828178	-2.864415183e-05	-3.862815857	3.096357822	-28.88866425	1.0
106	21.14211655	0.0001953828178	-2.864415183e-05	-4.548883915	2.560253143	-22.89959908	1.0
[LeftHandPinky4]
103	19.7568264	0.0001240565616	-0.0004430140834	0	0	0	1.0
104	19.7568264	0.0001240565616	-0.0004430140834	0	0	0	1.0
105	19.7568264	0.0001240565616	-0.0004430140834	0	0	0	1.0
106	19.7568264	0.0001240565616	-0.0004430140834	0	0	0	1.0
[RightShoulder]
103	-45.69969559	109.4617615	-26.28017426	13.57314396	-3.785657167	1.776766658	1.0
104	-45.69969559	109.4617615	-26.28017426	12.55413818	-0.9629644156	0.1305674314	1.0
105	-45.69969559	109.4617615	-26.28017426	11.70692062	2.10458827	-2.307858229	1.0
106	-45.69969559	109.4617615	-26.28017426	12.60187149	4.918766499	-8.746006012	1.0
[RightArm]
103	-105.9284363	-5.247983932	-22.32098579	-60.96125031	17.49264145	11.99955273	1.0
104	-105.9284363	-5.247983932	-22.32098579	-70.59597015	16.41853714	-0.3854207993	1.0
105	-105.9284363	-5.247983932	-22.32098579	-76.93771362	13.89727402	-12.41653347	1.0
106	-105.9284363	-5.247983932	-22.32098579	-72.96430206	8.635097504	-18.05111694	1.0
[RightForeArm]
103	-278.4151917	-0.0003307921579	0.0001167631053	-1005.505188	84.89579773	-1032.846924	1.0
104	-278.4151917	-0.0003307921579	0.0001167631053	-1039.056396	70.01487732	-1061.32019	1.0
105	-278.4151917	-0.0003307921579	0.0001167631053	-1059.115479	52.28606796	-1075.63501	1.0
106	-278.4151917	-0.0003307921579	0.0001167631053	-1078.157593	34.96447754	-1087.407349	1.0
[RightHand]
103	-283.2883911	-1.581417109e-06	0.000558160129	-75.1869812	15.85902405	-17.17271233	1.0
104	-283.2883911	-1.581417109e-06	0.000558160129	-75.10753632	14.78551388	-14.74053669	1.0
105	-283.2883911	-1.581417109e-06	0.000558160129	-74.92341614	12.45830727	-10.39816952	1.0
106	-283.2883911	-1.581417109e-06	0.000558160129	-74.68706512	7.709913731	-7.750822067	1.0
[RightHandPinky1]
103	-80.76674652	-4.88459301	-38.06010437	-13.70738792	-30.62304306	22.88706398	1.0
104	-80.76674652	-4.88459301	-38.06010437	-12.38593864	-25.06766129	19.67968369	1.0
105	-80.76674652	-4.88459301	-38.06010437	-10.47781754	-16.58581924	15.68435574	1.0
106	-80.76674652	-4.88459301	-38.06010437	-8.029219627	-5.984500408	10.99259949	1.0
[RightHandPinky2]
103	-36.00034332	0.0003967665543	0.0005081442068	0.1209432408	-0.5199317336	13.72945786	1.0
104	-36.00034332	0.0003967665543	0.0005081442068	0.09801571071	-0.4464039803	13.2307682	1.0
105	-36.00034332	0.0003967665543	0.0005081442068	0.09539473057	-0.4392081499	13.18783951	1.0
106	-36.00034332	0.0003967665543	0.0005081442068	0.1015769541	-0.4582577348	13.31925488	1.0
[RightHandPinky3]
103	-21.14211655	0.0001513792522	0.0001479376951	-5.189091682	-1.688587189	17.44423676	1.0
104	-21.14211655	0.0001513792522	0.0001479376951	-5.222599983	-1.670327187	17.1995697	1.0
105	-21.14211655	0.0001513792522	0.0001479376951	-5.226621151	-1.668269873	17.1764698	1.0
106	-21.14211655	0.0001513792522	0.0001479376951	-5.218658447	-1.67292583	17.24036789	1.0
[RightHandPinky4]
103	-19.7568264	-0.000185219571	-9.839841368e-06	0	0	0	1.0
104	-19.7568264	-0.000185219571	-9.839841368e-06	0	0	0	1.0
105	-19.7568264	-0.000185219571	-9.839841368e-06	0	0	0	1.0
106	-19.7568264	-0.000185219571	-9.839841368e-06	0	0	0	1.0
[RightHandRing1]
103	-91.03588104	-0.4391434789	-18.65072441	-4.088619709	-13.33428097	0.08322744071	1.0
104	-91.03588104	-0.4391434789	-18.65072441	-3.655928135	-11.28057194	1.47459197	1.0
105	-91.03588104	-0.4391434789	-18.65072441	-3.090049982	-8.207587242	4.428718567	1.0
106	-91.03588104	-0.4391434789	-18.65072441	-2.399383307	-4.379702091	8.30222702	1.0
[RightHandRing2]
103	-31.54026794	0.0002399729856	0.0004885121016	-5.102447033	-0.5710074902	20.42990303	1.0
104	-31.54026794	0.0002399729856	0.0004885121016	-5.144007206	-0.5086537004	19.88897705	1.0
105	-31.54026794	0.0002399729856	0.0004885121016	-5.148746014	-0.5016710758	19.84192657	1.0
106	-31.54026794	0.0002399729856	0.0004885121016	-5.137967587	-0.5174313188	19.98379326	1.0
[RightHandRing3]
103	-29.37672424	-0.0004160065437	-0.0003966063377	-3.031404734	-0.785409987	13.39087963	1.0
104	-29.37672424	-0.0004160065437	-0.0003966063377	-3.070556164	-0.7551974058	13.14494419	1.0
105	-29.37672424	-0.0004160065437	-0.0003966063377	-3.074899435	-0.7519395947	13.12202454	1.0
106	-29.37672424	-0.0004160065437	-0.0003966063377	-3.065262556	-0.7596225142	13.18665504	1.0
[RightHandRing4]
103	-26.47452545	0.0002460821415	-2.294923434e-05	0	0	0	1.0
104	-26.47452545	0.0002460821415	-2.294923434e-05	0	0	0	1.0
105	-26.47452545	0.0002460821415	-2.294923434e-05	0	0	0	1.0
106	-26.47452545	0.0002460821415	-2.294923434e-05	0	0	0	1.0
[RightHandMiddle1]
103	-95.32502747	-0.0001631230261	0.0001679184206	-1.477327228	-1.019212604	-12.66056824	1.0
104	-95.32502747	-0.0001631230261	0.0001679184206	-0.9588900805	-1.430413961	-8.580939293	1.0
105	-95.32502747	-0.0001631230261	0.0001679184206	-0.2538364828	-2.134978533	-1.57638967	1.0
106	-95.32502747	-0.0001631230261	0.0001679184206	0.4914653599	-2.983634949	7.370026588	1.0
[RightHandMiddle2]
103	-36.98236847	0.000150669599	-0.0002254552383	-1.187034607	-0.7491681576	9.52914238	1.0
104	-36.98236847	0.000150669599	-0.0002254552383	-1.197234631	-0.6991059184	8.991264343	1.0
105	-36.98236847	0.000150669599	-0.0002254552383	-1.199423909	-0.694016397	8.944331169	1.0
106	-36.98236847	0.000150669599	-0.0002254552383	-1.196858764	-0.7067664862	9.085333824	1.0
[RightHandMiddle3]
103	-29.50921631	-3.113244929e-06	-3.03402544e-06	0.07666943222	-1.001186252	11.76514244	1.0
104	-29.50921631	-3.113244929e-06	-3.03402544e-06	0.08314971626	-0.9782180786	11.46502018	1.0
105	-29.50921631	-3.113244929e-06	-3.03402544e-06	0.08347015828	-0.9760605693	11.43723488	1.0
106	-29.50921631	-3.113244929e-06	-3.03402544e-06	0.08192063123	-0.9821791649	11.51640892	1.0
[RightHandMiddle4]
103	-28.3390255	8.05324089e-05	0.0005378770875	0	0	0	1.0
104	-28.3390255	8.05324089e-05	0.0005378770875	0	0	0	1.0
105	-28.3390255	8.05324089e-05	0.0005378770875	0	0	0	1.0
106	-28.3390255	8.05324089e-05	0.0005378770875	0	0	0	1.0
[RightHandIndex1]
103	-91.08280945	-5.167889595	22.60116386	-4.129705429	12.70983505	-20.19051552	1.0
104	-91.08280945	-5.167889595	22.60116386	-3.447050095	8.771435738	-14.805439	1.0
105	-91.08280945	-5.167889595	22.60116386	-2.421655893	2.69123435	-5.735061646	1.0
106	-91.08280945	-5.167889595	22.60116386	-1.264294028	-4.838905811	5.872004509	1.0
[RightHandIndex2]
103	-36.76409531	0.0001922715601	0.0003235567128	1.729097605	-1.256300807	13.02711964	1.0
104	-36.76409531	0.0001922715601	0.0003235567128	1.751311421	-1.234421492	12.7183857	1.0
105	-36.76409531	0.0001922715601	0.0003235567128	1.753071666	-1.232565641	12.69060516	1.0
106	-36.76409531	0.0001922715601	0.0003235567128	1.74740994	-1.238597393	12.77310658	1.0
[RightHandIndex3]
103	-28.83062553	-0.0004960121587	0.0004044897505	0.7506363392	-1.033265591	11.75461292	1.0
104	-28.83062553	-0.0004960121587	0.0004044897505	0.7545171976	-1.009484053	11.49548817	1.0
105	-28.83062553	-0.0004960121587	0.0004044897505	0.7547070384	-1.007176876	11.47077942	1.0
106	-28.83062553	-0.0004960121587	0.0004044897505	0.7538266182	-1.013392448	11.53817272	1.0
[RightHandIndex4]
103	-23.92720032	0.0002681470069	0.0002802013478	0	0	0	1.0
104	-23.92720032	0.0002681470069	0.0002802013478	0	0	0	1.0
105	-23.92720032	0.0002681470069	0.0002802013478	0	0	0	1.0
106	-23.92720032	0.0002681470069	0.0002802013478	0	0	0	1.0
[RightHandThumb1]
103	-24.64805984	-15.72714233	26.82626534	3.094875574	17.76103973	-9.514475822	1.0
104	-24.64805984	-15.72714233	26.82626534	3.315632343	14.87557411	-9.859989166	1.0
105	-24.64805984	-15.72714233	26.82626534	3.421919107	10.42177486	-10.23402309	1.0
106	-24.64805984	-15.72714233	26.82626534	3.45822382	4.891974449	-10.85164547	1.0
[RightHandThumb2]
103	-32.29771805	-18.6470871	18.64718437	-0.96822685	-21.86214447	-2.851610899	1.0
104	-32.29771805	-18.6470871	18.64718437	3.205749512	-22.92350388	-5.828692436	1.0
105	-32.29771805	-18.6470871	18.64718437	9.791367531	-24.51722908	-10.50010777	1.0
106	-32.29771805	-18.6470871	18.64718437	18.56764793	-25.85538292	-16.2806282	1.0
[RightHandThumb3]
103	-26.52605057	-15.31449318	15.31445599	-10.13556385	9.687653542	-6.553382397	1.0
104	-26.52605057	-15.31449318	15.31445599	-6.434991837	3.194893599	-9.458122253	1.0
105	-26.52605057	-15.31449318	15.31445599	-0.3970567286	-6.495987415	-14.23279095	1.0
106	-26.52605057	-15.31449318	15.31445599	9.141173363	-17.07728386	-22.42440414	1.0
[RightHandThumb4]
103	-19.54580498	-11.28461742	11.28507042	0	0	0	1.0
104	-19.54580498	-11.28461742	11.28507042	0	0	0	1.0
105	-19.54580498	-11.28461742	11.28507042	0	0	0	1.0
106	-19.54580498	-11.28461742	11.28507042	0	0	0	1.0
[LeftUpLeg]
103	82.07781982	-67.51714325	-15.99555588	-25.72098541	41.28829956	7.932483673	1.0
104	82.07781982	-67.51714325	-15.99555588	-25.74029541	41.13152313	7.314852715	1.0
105	82.07781982	-67.51714325	-15.99555588	-26.12826347	41.01692963	6.896570683	1.0
106	82.07781982	-67.51714325	-15.99555588	-26.13593674	40.78920364	7.168909073	1.0
[LeftLeg]
103	-4.110157988e-06	-443.7047119	2.846426487	61.0904808	-13.29249001	-3.617796659	1.0
104	-4.110157988e-06	-443.7047119	2.846426487	60.20373535	-13.37046337	-3.445126534	1.0
105	-4.110157988e-06	-443.7047119	2.846426487	60.64180374	-13.36305428	-3.599090815	1.0
106	-4.110157988e-06	-443.7047119	2.846426487	62.51364517	-13.2818737	-4.089057922	1.0
[LeftFoot]
103	4.716393505e-06	-444.278717	-29.82190704	-26.56116295	-22.07746124	3.336698294	1.0
104	4.716393505e-06	-444.278717	-29.82190704	-27.85078239	-21.62777901	4.188790321	1.0
105	4.716393505e-06	-444.278717	-29.82190704	-30.84370804	-20.84360504	5.786628723	1.0
106	4.716393505e-06	-444.278717	-29.82190704	-33.84889984	-19.80112648	7.291379452	1.0
[LeftToeBase]
103	-2.960988058e-05	-87.28669739	107.1055984	-1.547127604	0.01562511735	0.676038444	1.0
104	-2.960988058e-05	-87.28669739	107.1055984	-1.038970232	0.01012278721	0.09877109528	1.0
105	-2.960988058e-05	-87.28669739	107.1055984	-0.2251876146	0.007110591512	-0.7675178051	1.0
106	-2.960988058e-05	-87.28669739	107.1055984	0.6673086286	0.03483374789	-1.518603206	1.0
[RightUpLeg]
103	-82.07795715	-67.51662445	-15.99559402	-32.91416168	-28.71110153	0.06453030556	1.0
104	-82.07795715	-67.51662445	-15.99559402	-33.08946609	-29.51604462	0.4459529519	1.0
105	-82.07795715	-67.51662445	-15.99559402	-34.07302094	-30.9586792	1.02808392	1.0
106	-82.07795715	-67.51662445	-15.99559402	-35.07051086	-32.63248825	1.283596754	1.0
[RightLeg]
103	8.435572454e-07	-443.7053833	2.861563921	57.71201706	1.398471951	-11.73644161	1.0
104	8.435572454e-07	-443.7053833	2.861563921	56.87494659	2.091207981	-11.23807335	1.0
105	8.435572454e-07	-443.7053833	2.861563921	57.58736038	3.640607357	-10.2894268	1.0
106	8.435572454e-07	-443.7053833	2.861563921	59.7894249	5.76236105	-8.979271889	1.0
[RightFoot]
103	9.644581951e-06	-444.2773132	-29.83789063	-21.03014374	5.959283829	6.525994301	1.0
104	9.644581951e-06	-444.2773132	-29.83789063	-21.00820541	6.036776543	7.076329708	1.0
105	9.644581951e-06	-444.2773132	-29.83789063	-21.95563698	6.244499683	7.637442112	1.0
106	9.644581951e-06	-444.2773132	-29.83789063	-23.07866669	6.267805576	7.677967548	1.0
[RightToeBase]
103	-2.360438157e-05	-87.28668976	107.1056061	-0.1098121703	-0.06173436344	1.505541325	1.0
104	-2.360438157e-05	-87.28668976	107.1056061	0.1078365445	-0.05493731052	1.135403752	1.0
105	-2.360438157e-05	-87.28668976	107.1056061	0.576492846	-0.03439888358	0.4675276577	1.0
106	-2.360438157e-05	-87.28668976	107.1056061	0.558511138	4.655578596e-05	1.617846283e-05	1.0
[EndOfFile]
